<svg 
xmlns="http://www.w3.org/2000/svg" 
version="1.1" 
xmlnsXlink="http://www.w3.org/1999/xlink" 
xmlnsSvgjs="http://svgjs.dev/svgjs" 
width="100" 
height="184" 
viewBox="0 0 1000 184">
<g transform="matrix(1,0,0,1,-0.6060569780671585,-0.38930619214700357)">
<svg viewBox="0 0 396 73" 
data-background-color="#c53683" 
preserveAspectRatio="xMidYMid meet" height="184" width="1000" xmlns="http://www.w3.org/2000/svg" xmlns:xlink="http://www.w3.org/1999/xlink"><g id="tight-bounds" transform="matrix(1,0,0,1,0.23999856331460023,0.1544530001452813)"><svg viewBox="0 0 395.52 72.69109399970942" height="72.69109399970942" width="395.52"><g><svg viewBox="0 0 395.52 72.69109399970942" height="72.69109399970942" width="395.52"><g><svg viewBox="0 0 395.52 72.69109399970942" height="72.69109399970942" width="395.52"><g id="textblocktransform"><svg viewBox="0 0 395.52 72.69109399970942" height="72.69109399970942" width="395.52" id="textblock"><g><svg viewBox="0 0 395.52 72.69109399970942" height="72.69109399970942" width="395.52"><g transform="matrix(1,0,0,1,0,0)"><svg width="395.52" viewBox="3 -30.520000457763672 168.02999877929688 30.89000129699707" height="72.69109399970942" data-palette-color="#ef86c1"><g class="wordmark-text-0" data-fill-palette-color="primary" id="text-0"><path d="M5.62 0.07Q3 0.07 3-1.29L3-1.29 3-29.08Q3-29.79 3.64-30.14 4.27-30.49 5.62-30.49L5.62-30.49 7.47-30.49Q8.52-30.49 9.2-30.25 9.89-30 10.33-29.3L10.33-29.3 20.58-13.5 21.75-11.74 21.75-29.08Q21.75-29.79 22.39-30.14 23.02-30.49 24.37-30.49L24.37-30.49 25.61-30.49Q26.95-30.49 27.58-30.14 28.2-29.79 28.2-29.08L28.2-29.08 28.2-1.29Q28.2 0.07 25.61 0.07L25.61 0.07 23.95 0.07Q22.88 0.07 22.22-0.16 21.56-0.39 21.12-1.07L21.12-1.07 10.38-17.5 9.45-18.87 9.45-1.29Q9.45 0.07 6.86 0.07L6.86 0.07 5.62 0.07ZM46.65 0.37Q42.7 0.37 39.88-0.88 37.06-2.12 35.57-4.48 34.08-6.84 34.08-10.16L34.08-10.16 34.08-29.08Q34.08-29.79 34.71-30.14 35.35-30.49 36.69-30.49L36.69-30.49 38.16-30.49Q39.5-30.49 40.12-30.14 40.74-29.79 40.74-29.08L40.74-29.08 40.74-10.6Q40.74-9.08 41.49-7.89 42.23-6.69 43.58-6.02 44.92-5.35 46.65-5.35L46.65-5.35Q48.39-5.35 49.74-6.02 51.1-6.69 51.85-7.89 52.61-9.08 52.61-10.6L52.61-10.6 52.61-29.08Q52.61-29.79 53.23-30.14 53.85-30.49 55.2-30.49L55.2-30.49 56.64-30.49Q57.98-30.49 58.6-30.14 59.23-29.79 59.23-29.08L59.23-29.08 59.23-10.16Q59.23-6.84 57.74-4.48 56.25-2.12 53.43-0.88 50.61 0.37 46.65 0.37L46.65 0.37ZM73.26 0.07Q70.65 0.07 70.65-1.29L70.65-1.29 70.65-24.71 63.76-24.71Q63.08-24.71 62.78-25.22 62.47-25.73 62.47-26.88L62.47-26.88 62.47-28.2Q62.47-29.35 62.78-29.86 63.08-30.37 63.76-30.37L63.76-30.37 84.3-30.37Q84.98-30.37 85.29-29.86 85.59-29.35 85.59-28.2L85.59-28.2 85.59-26.88Q85.59-25.73 85.29-25.22 84.98-24.71 84.3-24.71L84.3-24.71 77.39-24.71 77.39-1.29Q77.39 0.07 74.78 0.07L74.78 0.07 73.26 0.07ZM91.55 0.07Q88.93 0.07 88.93-1.29L88.93-1.29 88.93-28.66Q88.93-29.57 89.35-29.97 89.76-30.37 90.67-30.37L90.67-30.37 99.14-30.37Q109.93-30.37 109.93-22.24L109.93-22.24Q109.93-19.78 108.55-17.99 107.17-16.21 104.85-15.33L104.85-15.33 104.85-15.16Q105.66-14.82 106.55-13.7 107.44-12.57 107.98-11.16L107.98-11.16 111.81-1.61Q112-1.03 112-0.78L112-0.78Q112 0.07 109.42 0.07L109.42 0.07 107.63 0.07Q105.46 0.07 105.12-0.83L105.12-0.83 101.68-9.3Q101.19-10.28 100.74-10.82 100.29-11.35 99.48-11.63 98.67-11.91 97.31-11.91L97.31-11.91 95.62-11.91 95.62-1.29Q95.62 0.07 93.01 0.07L93.01 0.07 91.55 0.07ZM95.62-17.68L99.72-17.68Q100.6-17.68 101.38-18.18 102.17-18.68 102.63-19.53 103.09-20.39 103.09-21.41L103.09-21.41Q103.09-22.92 102.1-23.82 101.12-24.71 99.43-24.71L99.43-24.71 95.62-24.71 95.62-17.68ZM117.76 0.12Q116.45 0.12 115.8-0.24 115.15-0.61 115.15-1.29L115.15-1.29 115.15-29.08Q115.15-30.52 117.76-30.52L117.76-30.52 119.28-30.52Q120.62-30.52 121.24-30.15 121.87-29.79 121.87-29.08L121.87-29.08 121.87-1.29Q121.87 0.12 119.28 0.12L119.28 0.12 117.76 0.12ZM130.29 0.07Q127.67 0.07 127.67-1.29L127.67-1.29 127.67-28.66Q127.67-29.57 128.09-29.97 128.5-30.37 129.41-30.37L129.41-30.37 143.91-30.37Q144.59-30.37 144.9-29.86 145.2-29.35 145.2-28.2L145.2-28.2 145.2-26.88Q145.2-25.73 144.9-25.22 144.59-24.71 143.91-24.71L143.91-24.71 134.36-24.71 134.36-18.36 143.59-18.36Q144.27-18.36 144.59-17.85 144.91-17.33 144.91-16.21L144.91-16.21 144.91-14.87Q144.91-13.72 144.59-13.2 144.27-12.67 143.59-12.67L143.59-12.67 134.36-12.67 134.36-1.29Q134.36 0.07 131.75 0.07L131.75 0.07 130.29 0.07ZM157.92 0.07Q155.31 0.07 155.31-1.29L155.31-1.29 155.31-14.58 146.66-28.54Q146.25-29.25 146.25-29.61L146.25-29.61Q146.25-30.03 146.95-30.26 147.64-30.49 149.03-30.49L149.03-30.49 150.86-30.49Q151.91-30.49 152.56-30.31 153.21-30.13 153.48-29.66L153.48-29.66 158.77-20.36 164.12-29.66Q164.39-30.13 165.05-30.31 165.71-30.49 166.73-30.49L166.73-30.49 168.27-30.49Q169.66-30.49 170.35-30.26 171.03-30.03 171.03-29.61L171.03-29.61Q171.03-29.13 170.61-28.54L170.61-28.54 162-14.45 162-1.29Q162 0.07 159.41 0.07L159.41 0.07 157.92 0.07Z" fill="#ef86c1" data-fill-palette-color="primary"></path></g></svg></g></svg></g></svg></g></svg></g><g></g></svg></g><defs></defs></svg><rect width="395.52" height="72.69109399970942" fill="none" stroke="none" visibility="hidden"></rect></g></svg></g></svg>