<svg xmlns="http://www.w3.org/2000/svg"
 version="1.1"
  xmlnsXlink="http://www.w3.org/1999/xlink"
   xmlnsSvgjs="http://svgjs.dev/svgjs"
    width="100"
     height="623"
      viewBox="0 0 1000 623">
      <g transform="matrix(1,0,0,1,-0.6060606060606233,0.2522267206477409)"><svg viewBox="0 0 396 247" data-background-color="#c53683" preserveAspectRatio="xMidYMid meet" height="623" width="1000" xmlns="http://www.w3.org/2000/svg" xmlns:xlink="http://www.w3.org/1999/xlink"><g id="tight-bounds" transform="matrix(1,0,0,1,0.2400000000000091,-0.09999999999999432)"><svg viewBox="0 0 395.52 247.2" height="247.2" width="395.52"><g><svg></svg></g><g><svg viewBox="0 0 395.52 247.2" height="247.2" width="395.52"><g transform="matrix(1,0,0,1,75.54432,98.5310184579977)"><svg viewBox="0 0 244.43135999999998 50.137963084004596" height="50.137963084004596" width="244.43135999999998"><g><svg viewBox="0 0 244.43135999999998 50.137963084004596" height="50.137963084004596" width="244.43135999999998"><g><svg viewBox="0 0 244.43135999999998 50.137963084004596" height="50.137963084004596" width="244.43135999999998"><g><svg viewBox="0 0 244.43135999999998 50.137963084004596" height="50.137963084004596" width="244.43135999999998"><g id="textblocktransform"><svg viewBox="0 0 244.43135999999998 50.137963084004596" height="50.137963084004596" width="244.43135999999998" id="textblock"><g><svg viewBox="0 0 244.43135999999998 50.137963084004596" height="50.137963084004596" width="244.43135999999998"><g transform="matrix(1,0,0,1,0,0)"><svg width="244.43135999999998" viewBox="2.25 -34.75 173.7899932861328 35.650001525878906" height="50.137963084004596" data-palette-color="#ef86c1"><path d="M27.5-34.75L27.5 0 16.3 0 8.9-26.5Q9.5-22.05 9.78-19.1 10.05-16.15 10.05-11.95L10.05-11.95 10.05 0 2.25 0 2.25-34.75 13.3-34.75 20.85-8.15Q20.3-11.8 19.98-14.88 19.65-17.95 19.65-21.85L19.65-21.85 19.65-34.75 27.5-34.75ZM57.25-34.75L57.25-10.9Q57.25-7.5 55.82-4.85 54.4-2.2 51.5-0.65 48.6 0.9 44.35 0.9L44.35 0.9Q38 0.9 34.72-2.3 31.45-5.5 31.45-10.9L31.45-10.9 31.45-34.75 40.5-34.75 40.5-11.2Q40.5-8.35 41.4-7.03 42.3-5.7 44.35-5.7L44.35-5.7Q46.4-5.7 47.3-7.05 48.2-8.4 48.2-11.2L48.2-11.2 48.2-34.75 57.25-34.75ZM59.2-34.75L84-34.75 83.05-27.9 75.9-27.9 75.9 0 66.85 0 66.85-27.9 59.2-27.9 59.2-34.75ZM103.04 0L97.04-12.9 95.09-12.9 95.09 0 86.04 0 86.04-34.75 96.89-34.75Q110.74-34.75 110.74-23.95L110.74-23.95Q110.74-17.4 105.09-14.6L105.09-14.6 112.79 0 103.04 0ZM95.09-28.45L95.09-19.05 97.14-19.05Q99.44-19.05 100.47-20.23 101.49-21.4 101.49-23.95L101.49-23.95Q101.49-26.25 100.34-27.35 99.19-28.45 96.79-28.45L96.79-28.45 95.09-28.45ZM114.34-34.75L123.39-34.75 123.39 0 114.34 0 114.34-34.75ZM136.89 0L127.84 0 127.84-34.75 147.54-34.75 146.64-28.35 136.89-28.35 136.89-19.8 145.44-19.8 145.44-13.4 136.89-13.4 136.89 0ZM166.69-34.75L176.04-34.75 166.04-12.95 166.04 0 156.99 0 156.99-12.9 146.99-34.75 156.64-34.75 161.64-19.85 166.69-34.75Z" opacity="1" transform="matrix(1,0,0,1,0,0)" fill="#ef86c1" class="wordmark-text-0" data-fill-palette-color="primary" id="text-0"></path></svg></g></svg></g></svg></g></svg></g></svg></g></svg></g></svg></g><path d="M191.273 92.531L191.273 32.03 8.133 32.03 8.133 215.17 191.273 215.17 191.273 154.669 186.752 154.669 186.752 210.649 12.654 210.649 12.654 36.551 186.752 36.551 186.752 92.531Z" fill="#ef86c1" stroke="transparent" data-fill-palette-color="primary"></path></svg></g><defs></defs></svg><rect width="395.52" height="247.2" fill="none" stroke="none" visibility="hidden"></rect></g></svg></g></svg>